<?xml version="1.0" encoding="UTF-8"?>
<!DOCTYPE svg PUBLIC "-//W3C//DTD SVG 1.1//EN" "http://www.w3.org/Graphics/SVG/1.1/DTD/svg11.dtd">
<!-- Creator: CorelDRAW 2019 (64-Bit) -->
<svg xmlns="http://www.w3.org/2000/svg" xmlns:xlink="http://www.w3.org/1999/xlink" xml:space="preserve" width="210mm" height="210mm" version="1.1" style="shape-rendering:geometricPrecision; text-rendering:geometricPrecision; image-rendering:optimizeQuality; fill-rule:evenodd; clip-rule:evenodd" viewBox="0 0 21000 21000">
  <defs>
   <style type="text/css">
    <![CDATA[
     .fil0 {fill:none}
     .fil1 {fill:#F7142F}
    ]]>
   </style>
  </defs>
  <g id="Слой_x0020_1">
   <metadata id="CorelCorpID_0Corel-Layer"/>
   <g id="_2186883960912">
    <path class="fil0" d="M570.58 10481.96l1137.3 -1057.21c3144.93,-5.34 6289.86,-10.68 9434.79,-16.02 711.59,-6.26 1190.62,153.1 1585.81,560.64 384.44,379.1 768.88,758.21 1153.32,1137.31 445.72,414.9 942.53,370.01 1473.69,16.02l2274.59 -1457.67 -656.75 -624.72 3251.72 -16.02c-1628.53,1180.02 -3257.05,2360.03 -4885.58,3540.05 -837.44,594.13 -1439.34,319.67 -1988.28,-244.27 -736.29,-700.39 -1401.64,-393.29 -2032.32,84.09l-2691.08 1970.25 -5622.42 16.02 5398.17 -3988.56 -7832.96 80.09z"/>
    <ellipse class="fil0" cx="10500" cy="10500" rx="10492" ry="10500"/>
    <path class="fil1" d="M15339.47 12564.34c-837.44,594.13 -1439.34,319.67 -1988.28,-244.27 -736.29,-700.39 -1401.64,-393.29 -2032.32,84.09l-2691.08 1970.25 -5622.42 16.02 5398.17 -3988.56 -7832.96 80.09 1137.3 -1057.21c3144.93,-5.34 6289.86,-10.68 9434.79,-16.02 711.59,-6.26 1190.62,153.1 1585.81,560.64 384.44,379.1 768.88,758.21 1153.32,1137.31 445.72,414.9 942.53,370.01 1473.69,16.02l2274.59 -1457.67 -656.75 -624.72 3251.72 -16.02c-1628.53,1180.02 -3257.05,2360.03 -4885.58,3540.05zm5652.52 -2064.35c0,-5798.99 -4697.42,-10499.99 -10492,-10499.99 -5794.56,0 -10491.99,4701 -10491.99,10499.99 0,5799 4697.43,10500.01 10491.99,10500.01 5794.58,0 10492,-4701.01 10492,-10500.01z"/>
   </g>
  </g>
 <g xmlns:inkscape="http://www.inkscape.org/namespaces/inkscape" id="layer1" transform="translate(0,-197)" inkscape:label="Layer 1" inkscape:groupmode="layer"> <g aria-label="AIRHEX.COM" style="font-style:normal;font-weight:normal;font-size:10.58333302px;line-height:1.25;font-family:sans-serif;letter-spacing:0px;word-spacing:0px;opacity:0.19480519;fill:#000000;fill-opacity:1;stroke:none;stroke-width:0.26458332" id="text817" transform="matrix(4.4206956,0,0,3.9276065,-268.97999,-290.86732)"> <path xmlns:inkscape="http://www.inkscape.org/namespaces/inkscape" d="m 70.897112,133.83092 -1.415934,3.83956 h 2.837036 z m -0.589111,-1.02836 h 1.18339 l 2.940389,7.71529 h -1.085205 l -0.702799,-1.9792 h -3.477824 l -0.702799,1.9792 h -1.100708 z" style="stroke-width:0.26458332" id="path819" inkscape:connector-curvature="0"> </path>
 <path xmlns:inkscape="http://www.inkscape.org/namespaces/inkscape" d="m 75.553159,132.80256 h 1.043864 v 7.71529 h -1.043864 z" style="stroke-width:0.26458332" id="path821" inkscape:connector-curvature="0"> </path>
 <path xmlns:inkscape="http://www.inkscape.org/namespaces/inkscape" d="m 82.333107,136.9005 q 0.335897,0.11369 0.651123,0.48576 0.320394,0.37207 0.640788,1.02319 l 1.059366,2.1084 h -1.121378 l -0.98702,-1.9792 q -0.382406,-0.77515 -0.744141,-1.02837 -0.356567,-0.25321 -0.976684,-0.25321 h -1.136882 v 3.26078 h -1.043863 v -7.71529 h 2.356445 q 1.322916,0 1.974039,0.55294 0.651123,0.55294 0.651123,1.66915 0,0.72864 -0.341064,1.20923 -0.335897,0.48059 -0.981852,0.66662 z m -2.614828,-3.24011 v 2.73885 h 1.312582 q 0.754476,0 1.136881,-0.34623 0.387574,-0.3514 0.387574,-1.02836 0,-0.67696 -0.387574,-1.01803 -0.382405,-0.34623 -1.136881,-0.34623 z" style="stroke-width:0.26458332" id="path823" inkscape:connector-curvature="0"> </path>
 <path xmlns:inkscape="http://www.inkscape.org/namespaces/inkscape" d="m 86.033138,132.80256 h 1.043864 v 3.1626 h 3.79305 v -3.1626 h 1.043864 v 7.71529 h -1.043864 v -3.67419 h -3.79305 v 3.67419 h -1.043864 z" style="stroke-width:0.26458332" id="path825" inkscape:connector-curvature="0"> </path>
 <path xmlns:inkscape="http://www.inkscape.org/namespaces/inkscape" d="m 93.99131,132.80256 h 4.878255 v 0.8785 h -3.834391 v 2.2841 h 3.674194 v 0.8785 h -3.674194 v 2.79569 h 3.927409 v 0.8785 H 93.99131 Z" style="stroke-width:0.26458332" id="path827" inkscape:connector-curvature="0"> </path>
 <path xmlns:inkscape="http://www.inkscape.org/namespaces/inkscape" d="m 100.31651,132.80256 h 1.12137 l 1.9172,2.86804 1.92753,-2.86804 h 1.12138 l -2.48047,3.7052 2.64583,4.01009 h -1.12138 l -2.17041,-3.28145 -2.18591,3.28145 h -1.126544 l 2.754354,-4.11861 z" style="stroke-width:0.26458332" id="path829" inkscape:connector-curvature="0"> </path>
 <path xmlns:inkscape="http://www.inkscape.org/namespaces/inkscape" d="m 108.03696,139.20527 h 1.09038 v 1.31258 h -1.09038 z" style="stroke-width:0.26458332" id="path831" inkscape:connector-curvature="0"> </path>
 <path xmlns:inkscape="http://www.inkscape.org/namespaces/inkscape" d="m 117.09067,133.39684 v 1.10071 q -0.5271,-0.49093 -1.12654,-0.73381 -0.59428,-0.24288 -1.26608,-0.24288 -1.32291,0 -2.02571,0.81132 -0.7028,0.80616 -0.7028,2.33578 0,1.52445 0.7028,2.33577 0.7028,0.80616 2.02571,0.80616 0.6718,0 1.26608,-0.24288 0.59944,-0.24288 1.12654,-0.73381 v 1.09037 q -0.54777,0.37207 -1.16272,0.55811 -0.60978,0.18603 -1.29191,0.18603 -1.75183,0 -2.75952,-1.0697 -1.00769,-1.07487 -1.00769,-2.93005 0,-1.86035 1.00769,-2.93005 1.00769,-1.07487 2.75952,-1.07487 0.69247,0 1.30225,0.18603 0.61495,0.18087 1.15238,0.54777 z" style="stroke-width:0.26458332" id="path833" inkscape:connector-curvature="0"> </path>
 <path xmlns:inkscape="http://www.inkscape.org/namespaces/inkscape" d="m 121.84491,133.51053 q -1.13689,0 -1.80868,0.84749 -0.66663,0.8475 -0.66663,2.30994 0,1.45727 0.66663,2.30477 0.67179,0.84749 1.80868,0.84749 1.13688,0 1.79834,-0.84749 0.66662,-0.8475 0.66662,-2.30477 0,-1.46244 -0.66662,-2.30994 -0.66146,-0.84749 -1.79834,-0.84749 z m 0,-0.84749 q 1.62264,0 2.59415,1.09037 0.97152,1.0852 0.97152,2.91455 0,1.82418 -0.97152,2.91455 -0.97151,1.0852 -2.59415,1.0852 -1.62781,0 -2.6045,-1.0852 -0.97151,-1.08521 -0.97151,-2.91455 0,-1.82935 0.97151,-2.91455 0.97669,-1.09037 2.6045,-1.09037 z" style="stroke-width:0.26458332" id="path835" inkscape:connector-curvature="0"> </path>
 <path xmlns:inkscape="http://www.inkscape.org/namespaces/inkscape" d="m 127.04356,132.80256 h 1.55546 l 1.96887,5.25033 1.97921,-5.25033 h 1.55546 v 7.71529 h -1.01803 v -6.77478 l -1.98954,5.29167 h -1.04903 l -1.98955,-5.29167 v 6.77478 h -1.01285 z" style="stroke-width:0.26458332" id="path837" inkscape:connector-curvature="0"> </path>
</g>
</g>
</svg>
